<?xml version="1.0" standalone="no"?>
<!DOCTYPE svg PUBLIC "-//W3C//DTD SVG 20010904//EN"
 "http://www.w3.org/TR/2001/REC-SVG-20010904/DTD/svg10.dtd">
<svg version="1.0" xmlns="http://www.w3.org/2000/svg"
 width="600.000000pt" height="600.000000pt" viewBox="0 0 600.000000 600.000000"
 preserveAspectRatio="xMidYMid meet">
<metadata>
Created by potrace 1.11, written by Peter Selinger 2001-2013
</metadata>
<g transform="translate(0.000000,600.000000) scale(0.100000,-0.100000)"
fill="#000000" stroke="none">
<path d="M10 3000 l0 -3000 2995 0 2995 0 0 3000 0 3000 -2995 0 -2995 0 0
-3000z m3200 2366 c152 -31 263 -66 375 -120 295 -142 489 -373 572 -684 24
-87 27 -115 27 -272 0 -157 -3 -185 -27 -272 -85 -317 -295 -565 -619 -732
-57 -30 -124 -61 -150 -71 -27 -10 -48 -23 -48 -30 0 -7 27 -18 63 -25 85 -18
226 -69 322 -118 212 -107 395 -284 508 -492 44 -81 91 -214 114 -322 25 -116
24 -371 -1 -488 -39 -179 -103 -337 -189 -465 -66 -99 -178 -227 -194 -221 -8
3 -12 2 -9 -3 12 -19 -157 -148 -287 -219 -93 -51 -279 -124 -384 -151 -176
-45 -312 -63 -528 -68 -244 -6 -416 10 -634 59 -205 46 -502 152 -484 173 5 4
3 5 -3 2 -12 -7 -144 59 -144 72 0 12 15 58 92 272 l69 196 127 -63 c198 -98
422 -166 652 -200 171 -25 458 -15 595 19 180 46 320 117 430 218 23 21 45 37
48 34 4 -3 5 -2 3 1 -2 3 19 35 47 72 61 81 128 222 151 317 26 107 31 253 12
370 -55 333 -285 580 -654 704 -176 59 -286 73 -599 78 l-283 5 0 228 0 227
263 6 c213 4 280 9 357 26 520 113 807 431 760 844 -21 179 -73 292 -191 409
-59 59 -96 86 -161 117 -262 127 -627 127 -978 0 -110 -40 -269 -117 -346
-167 l-61 -39 -81 218 c-45 120 -82 222 -82 227 0 14 158 103 270 153 199 88
434 154 655 184 140 19 510 13 625 -9z"/>
</g>
</svg>
